<svg width="140" height="140" viewBox="0 0 140 140" fill="none" xmlns="http://www.w3.org/2000/svg">
<g filter="url(#filter0_d)">
<path d="M80.5368 62H51.1132C49.6177 62 48.2522 61.4804 47.1468 60.636L41.002 54.5954L44.5783 50.9256V26.0812C44.5783 22.5088 47.5044 19.5859 51.0807 19.5859H75.1072L79.0737 15.4939L84.6008 21.0149C86.0638 22.2165 87.0067 24.0352 87.0067 26.0487V55.5047C87.0392 59.0771 84.1456 62 80.5368 62Z" fill="#FFBD3E"/>
<path d="M74.9585 14H45.5024C41.9261 14 39 16.9228 39 20.4952V49.8863C39 53.4587 41.9261 56.3816 45.5024 56.3816H74.9585C78.5348 56.3816 81.4609 53.4587 81.4609 49.8863V20.4628C81.4609 16.8904 78.5348 14 74.9585 14Z" fill="#FFDC97"/>
<path d="M70.5075 20.7215H50.4605C48.0266 20.7215 46.0352 22.7142 46.0352 25.1498V45.188C46.0352 47.6236 48.0266 49.6163 50.4605 49.6163H70.5075C72.9414 49.6163 74.9329 47.6236 74.9329 45.188V25.1276C74.9329 22.6921 72.9414 20.7215 70.5075 20.7215Z" fill="#1E6CD0"/>
<mask id="mask0" mask-type="alpha" maskUnits="userSpaceOnUse" x="46" y="20" width="29" height="30">
<path d="M70.5075 20.7215H50.4605C48.0266 20.7215 46.0352 22.7142 46.0352 25.1498V45.188C46.0352 47.6236 48.0266 49.6163 50.4605 49.6163H70.5075C72.9414 49.6163 74.9329 47.6236 74.9329 45.188V25.1276C74.9329 22.6921 72.9414 20.7215 70.5075 20.7215Z" fill="#227AEB"/>
</mask>
<g mask="url(#mask0)">
<path d="M74.6364 24.8495H54.5894C52.1555 24.8495 50.1641 26.8423 50.1641 29.2778V49.3161C50.1641 51.7516 52.1555 53.7444 54.5894 53.7444H74.6364C77.0703 53.7444 79.0618 51.7516 79.0618 49.3161V29.2557C79.0618 26.8201 77.0703 24.8495 74.6364 24.8495Z" fill="#227AEB"/>
</g>
<g clip-path="url(#clip0)">
<path d="M62.4076 77.7226C61.8769 77.1437 61.3462 76.6131 60.7673 76.0824L56.4734 71.789L55.6532 72.6573C52.8067 71.2583 49.6224 70.4865 46.2452 70.4865C34.232 70.4865 24.4863 80.2312 24.4863 92.2432C24.4863 95.8613 25.3548 99.2382 26.9469 102.229L26.2232 102.953L30.8065 107.536C30.8548 107.584 30.903 107.632 30.9513 107.68L31.9644 108.693L32.0127 108.645C35.8241 111.974 40.7934 113.952 46.2452 113.952C58.2585 113.952 68.0041 104.207 68.0041 92.195C68.0041 86.6473 65.8813 81.5819 62.4076 77.7226Z" fill="#FFBD3E"/>
<path d="M41.7589 109.514C53.776 109.514 63.5178 99.7727 63.5178 87.7568C63.5178 75.7408 53.776 66 41.7589 66C29.7418 66 20 75.7408 20 87.7568C20 99.7727 29.7418 109.514 41.7589 109.514Z" fill="#FFDC97"/>
<path d="M41.4476 102.766C49.909 102.766 56.7683 95.9074 56.7683 87.4468C56.7683 78.9863 49.909 72.1277 41.4476 72.1277C32.9862 72.1277 26.127 78.9863 26.127 87.4468C26.127 95.9074 32.9862 102.766 41.4476 102.766Z" fill="#7A51D2"/>
<mask id="mask1" mask-type="alpha" maskUnits="userSpaceOnUse" x="26" y="72" width="31" height="31">
<path d="M41.4496 102.766C49.9109 102.766 56.7702 95.9074 56.7702 87.4468C56.7702 78.9863 49.9109 72.1277 41.4496 72.1277C32.9882 72.1277 26.1289 78.9863 26.1289 87.4468C26.1289 95.9074 32.9882 102.766 41.4496 102.766Z" fill="#8D66DF"/>
</mask>
<g mask="url(#mask1)">
<path d="M45.5335 106.851C53.9949 106.851 60.8542 99.9925 60.8542 91.5319C60.8542 83.0714 53.9949 76.2128 45.5335 76.2128C37.0722 76.2128 30.2129 83.0714 30.2129 91.5319C30.2129 99.9925 37.0722 106.851 45.5335 106.851Z" fill="#8D66DF"/>
</g>
</g>
<path d="M118.196 49.7704L113.718 45.2251L73.4199 85.9391L78.2518 90.7745C79.0249 91.5159 80.088 91.9994 81.3765 91.9994L115.49 91.9994C117.97 91.9994 120 89.9686 120 87.4864L120 53.3486C119.967 51.8012 119.259 50.5763 118.196 49.7704Z" fill="#FFBD3E"/>
<path d="M107.44 45.3225L73.327 79.4603C70.4923 82.2971 72.4895 87.1647 76.5161 87.1647L110.629 87.1647C113.11 87.1647 115.139 85.1339 115.139 82.6517L115.139 48.5138C115.139 44.5166 110.275 42.4857 107.44 45.3225Z" fill="#FFDC97"/>
<path d="M104.654 55.3368L82.3964 77.5953C80.5469 79.4449 81.8499 82.6187 84.4771 82.6187L106.734 82.6187C108.353 82.6187 109.677 81.2946 109.677 79.6761L109.677 57.4176C109.677 54.8113 106.503 53.4872 104.654 55.3368Z" fill="#44B980"/>
<path d="M104.654 55.3368L82.3964 77.5953C80.5469 79.4449 81.8499 82.6187 84.4771 82.6187L109.677 57.4176C109.677 54.8113 106.503 53.4872 104.654 55.3368Z" fill="#1FA463"/>
</g>
<defs>
<filter id="filter0_d" x="0" y="0" width="140" height="140" filterUnits="userSpaceOnUse" color-interpolation-filters="sRGB">
<feFlood flood-opacity="0" result="BackgroundImageFix"/>
<feColorMatrix in="SourceAlpha" type="matrix" values="0 0 0 0 0 0 0 0 0 0 0 0 0 0 0 0 0 0 127 0"/>
<feOffset dy="6"/>
<feGaussianBlur stdDeviation="10"/>
<feColorMatrix type="matrix" values="0 0 0 0 1 0 0 0 0 0.907452 0 0 0 0 0.725 0 0 0 0.8 0"/>
<feBlend mode="normal" in2="BackgroundImageFix" result="effect1_dropShadow"/>
<feBlend mode="normal" in="SourceGraphic" in2="effect1_dropShadow" result="shape"/>
</filter>
<clipPath id="clip0">
<rect width="48.0047" height="48" fill="white" transform="translate(20 66)"/>
</clipPath>
</defs>
</svg>
