<svg width="120" height="128" viewBox="0 0 120 128" fill="none" xmlns="http://www.w3.org/2000/svg">
<g filter="url(#filter0_d)">
<path d="M20.1641 63.4382V68.6929C20.1641 81.0093 25.7916 88.9329 32.029 93.9652C38.5713 99.2198 46.7493 102 55.1213 102H60.0003H64.8793C73.2513 102 81.457 99.2476 87.9716 93.9652C94.209 88.9329 99.8365 80.9815 99.8365 68.6929V63.4382H20.1641Z" fill="#FFBD3E"/>
<path d="M88.0825 14C68.5318 14 50.7858 14 31.8904 14C25.4035 14 20.1641 19.2579 20.1641 25.7676V62.7397C20.1641 75.0637 25.7916 82.9923 32.029 88.0276C38.5713 93.2855 46.7493 96.0674 55.1213 96.0674H60.0003H64.8793C73.2513 96.0674 81.457 93.3133 87.9716 88.0276C94.209 82.9923 99.8365 75.0359 99.8365 62.7397V25.7676C99.8088 19.2579 94.5694 14 88.0825 14Z" fill="#FFDC97"/>
<mask id="mask0" mask-type="alpha" maskUnits="userSpaceOnUse" x="20" y="14" width="80" height="82">
<path d="M88.1976 14C68.5665 14 50.7476 14 31.7745 14C25.261 14 20 19.2302 20 25.7056V62.4829C20 74.7419 25.6507 82.6287 31.9137 87.6375C38.483 92.8677 46.6945 95.635 55.1009 95.635H60H64.8991C73.3055 95.635 81.5449 92.8953 88.0863 87.6375C94.3493 82.6287 100 74.7143 100 62.4829V25.7056C99.9722 19.2302 94.7112 14 88.1976 14Z" fill="#FFD789"/>
</mask>
<g mask="url(#mask0)">
<path opacity="0.6" d="M101.003 19.2642L82.1387 30.2956L84.3579 51.2553L101.003 41.327V19.2642Z" fill="white"/>
<path opacity="0.6" d="M34.9809 52.3584L16.6719 64.493L18.3363 84.3496L34.9809 74.4213V52.3584Z" fill="white"/>
</g>
<path d="M85.9475 22.8989C67.9296 22.8989 51.7267 22.8989 34.0798 22.8989C31.3558 22.8989 29.127 25.1351 29.127 27.8682V61.3282C29.127 74.7729 37.7395 81.5091 44.2057 84.6563C47.6177 86.3404 51.3874 87.1686 55.1846 87.1686H59.9999H64.8152C68.6124 87.1686 72.3821 86.3404 75.7941 84.6563C82.2604 81.4815 90.8729 74.7453 90.8729 61.3282V27.8682C90.9004 25.1351 88.6716 22.8989 85.9475 22.8989Z" fill="#7A51D2"/>
<mask id="mask1" mask-type="alpha" maskUnits="userSpaceOnUse" x="29" y="28" width="62" height="61">
<path d="M86.0541 28C67.9621 28 51.6926 28 33.9732 28C31.238 28 29 30.2374 29 32.9719V63.1461C29 76.5979 37.6479 83.3376 44.1408 86.4864C47.5668 88.1713 51.352 89 55.1648 89H59.9999H64.835C68.6478 89 72.433 88.1713 75.859 86.4864C82.3518 83.3099 90.9997 76.5702 90.9997 63.1461V32.9719C91.0274 30.2374 88.7894 28 86.0541 28Z" fill="#4C6DF6"/>
</mask>
<g mask="url(#mask1)">
<ellipse cx="59.9494" cy="55.7711" rx="42.1662" ry="41.9194" fill="#8E66DF"/>
</g>
<path d="M58.0981 41.847C58.6972 40.0052 61.3028 40.0052 61.9019 41.847L64.7214 50.5147H73.8391C75.7771 50.5147 76.5823 52.9951 75.0138 54.1334L67.6393 59.4853L70.4573 68.1485C71.0565 69.9908 68.9485 71.5237 67.3807 70.3858L60 65.0294L52.6193 70.3858C51.0515 71.5237 48.9435 69.9908 49.5427 68.1485L52.3607 59.4853L44.9862 54.1334C43.4177 52.9951 44.2229 50.5147 46.1609 50.5147H55.2786L58.0981 41.847Z" fill="white"/>
</g>
<defs>
<filter id="filter0_d" x="0" y="0" width="120" height="128" filterUnits="userSpaceOnUse" color-interpolation-filters="sRGB">
<feFlood flood-opacity="0" result="BackgroundImageFix"/>
<feColorMatrix in="SourceAlpha" type="matrix" values="0 0 0 0 0 0 0 0 0 0 0 0 0 0 0 0 0 0 127 0"/>
<feOffset dy="6"/>
<feGaussianBlur stdDeviation="10"/>
<feColorMatrix type="matrix" values="0 0 0 0 1 0 0 0 0 0.907452 0 0 0 0 0.725 0 0 0 0.8 0"/>
<feBlend mode="normal" in2="BackgroundImageFix" result="effect1_dropShadow"/>
<feBlend mode="normal" in="SourceGraphic" in2="effect1_dropShadow" result="shape"/>
</filter>
</defs>
</svg>
