<svg width="131" height="120" viewBox="0 0 131 120" fill="none" xmlns="http://www.w3.org/2000/svg">
<g filter="url(#filter0_d)">
<path d="M110.402 24.3055V28.5584H86.7852V14.0039H100.142C100.564 14.0039 100.982 14.0311 101.393 14.0817C101.459 14.0894 101.524 14.0972 101.59 14.1128C106.511 14.8047 110.305 18.9992 110.398 24.1073C110.402 24.1734 110.402 24.2395 110.402 24.3055Z" fill="#FFBD3E"/>
<path d="M101.498 14.0039L101.591 14.1128C101.525 14.0972 101.459 14.0894 101.393 14.0817C100.983 14.0311 100.565 14.0039 100.143 14.0039H101.498Z" fill="#FF781D"/>
<path d="M110.402 24.1111V24.3054C110.402 24.2393 110.402 24.1733 110.398 24.1072L110.402 24.1111Z" fill="#FF781D"/>
<path d="M44.9883 14V14.0428C45.3367 14.0155 45.6929 14 46.0491 14H44.9883Z" fill="#DCDCDC"/>
<path d="M89.8829 24.3055C89.8829 24.5465 89.8906 24.7837 89.9061 25.0208C89.9448 25.5339 89.9448 26.0471 89.9293 26.5602C89.9255 26.7002 89.9216 26.8401 89.9216 26.9801V84.1055C89.395 89.0581 85.295 93.0193 80.2929 93.2915C80.0993 93.3031 79.9096 93.307 79.7199 93.307H33.454V93.3031C33.3921 93.307 33.3263 93.307 33.2604 93.307C33.214 93.307 33.1636 93.307 33.1172 93.3031V26.9801C33.1172 26.6224 33.1327 26.2687 33.1636 25.9188C33.6708 19.5979 38.6923 14.5559 44.9876 14.0428C45.336 14.0155 45.6922 14 46.0484 14L100.143 14.0039C94.4746 14.0039 89.8829 18.6144 89.8829 24.3055Z" fill="#FFDC97"/>
<path d="M33.1172 25.9187V26.9839C33.1172 26.6262 33.1327 26.2725 33.1598 25.9187H33.1172Z" fill="#DCDCDC"/>
<path d="M33.4534 93.4431V93.4392C33.3914 93.4431 33.3256 93.4431 33.2598 93.4431C33.2133 93.4431 33.163 93.4431 33.1165 93.4392C27.5143 93.3615 23 88.7238 23 83.0093C23 82.9432 23 82.8771 23.0039 82.811H69.4633C69.4594 82.8732 69.4594 82.9393 69.4594 83.0093C69.4594 83.1337 69.4633 83.2581 69.4672 83.3825C69.471 83.4991 69.4749 83.6196 69.4865 83.7324C69.4943 83.8451 69.502 83.9617 69.5136 84.0744C69.5291 84.2494 69.5523 84.4204 69.5795 84.5954C69.5795 84.5992 69.5795 84.6031 69.5795 84.6031C69.6027 84.7664 69.6337 84.9297 69.6646 85.0929C69.6685 85.1124 69.6724 85.1279 69.6762 85.1435C69.7072 85.3068 69.7421 85.4622 69.7846 85.6177C69.8195 85.7577 69.8582 85.9015 69.9008 86.0376C69.9124 86.0842 69.9279 86.1309 69.9434 86.1775C69.9821 86.3058 70.0247 86.4341 70.0711 86.5585C70.075 86.5779 70.0828 86.5935 70.0905 86.6129C70.1254 86.7062 70.1602 86.8034 70.1989 86.8928C70.2299 86.9822 70.2686 87.0755 70.3073 87.1649C70.4235 87.4448 70.5551 87.7131 70.6983 87.9813C70.8571 88.2767 71.0274 88.5644 71.2133 88.8443C71.3798 89.097 71.5579 89.3419 71.7476 89.5751C71.794 89.6334 71.8444 89.6956 71.8986 89.7578C71.9489 89.8239 72.007 89.89 72.0612 89.9561C72.1154 90.0144 72.1657 90.0727 72.2199 90.131C72.3709 90.3021 72.5296 90.4615 72.6922 90.617C72.7619 90.6869 72.8355 90.7491 72.909 90.8191C73.0639 90.959 73.2265 91.099 73.393 91.2273C73.4782 91.2972 73.5672 91.3672 73.6563 91.4333C73.7763 91.5227 73.9002 91.6121 74.0241 91.6976C74.1518 91.7832 74.2796 91.8687 74.4074 91.9464C74.6668 92.1058 74.93 92.2535 75.2049 92.3857C75.3211 92.444 75.4372 92.5023 75.5572 92.5529C75.5843 92.5684 75.6153 92.5801 75.6424 92.5918C75.7121 92.6267 75.7857 92.6578 75.8592 92.6851C75.9676 92.7317 76.076 92.7706 76.1844 92.8094C76.1922 92.8133 76.1999 92.8172 76.2115 92.8211C76.3393 92.8678 76.4671 92.9144 76.5948 92.9533C76.7226 92.996 76.8542 93.0349 76.9897 93.0699C77.0904 93.0971 77.1911 93.1243 77.2917 93.1477C77.3769 93.171 77.4659 93.1904 77.555 93.206C77.6014 93.2215 77.6518 93.2293 77.6982 93.2371C77.7795 93.2565 77.8608 93.272 77.946 93.2837C78.0583 93.307 78.1744 93.3226 78.2906 93.3381C78.4145 93.3576 78.5422 93.3731 78.67 93.3848C78.7823 93.3965 78.8984 93.4081 79.0146 93.412C79.0881 93.4198 79.1617 93.4237 79.2391 93.4276C79.3979 93.4353 79.5566 93.4392 79.7192 93.4392H33.4534V93.4431Z" fill="#FFBD3E"/>
<path d="M79.8166 84.3699C79.7547 84.366 79.6889 84.366 79.623 84.366H79.8166V84.3699Z" fill="#F0F0F0"/>
<rect x="38.1621" y="38.9719" width="46.3765" height="5" rx="2.5" fill="white"/>
<rect x="38.1621" y="48.9719" width="46.3765" height="5" rx="2.5" fill="white"/>
<rect x="38.1621" y="58.9719" width="32.1068" height="5" rx="2.5" fill="white"/>
<path d="M35 47C43.2843 47 50 40.2843 50 32C50 23.7157 43.2843 17 35 17C26.7157 17 20 23.7157 20 32C20 40.2843 26.7157 47 35 47Z" fill="#44B980"/>
<path d="M28.5137 31.9003L33.303 36.6897L41.8174 28.1753" stroke="white" stroke-width="4" stroke-linecap="round" stroke-linejoin="round"/>
</g>
<defs>
<filter id="filter0_d" x="0" y="0" width="130.402" height="119.443" filterUnits="userSpaceOnUse" color-interpolation-filters="sRGB">
<feFlood flood-opacity="0" result="BackgroundImageFix"/>
<feColorMatrix in="SourceAlpha" type="matrix" values="0 0 0 0 0 0 0 0 0 0 0 0 0 0 0 0 0 0 127 0"/>
<feOffset dy="6"/>
<feGaussianBlur stdDeviation="10"/>
<feColorMatrix type="matrix" values="0 0 0 0 1 0 0 0 0 0.907452 0 0 0 0 0.725 0 0 0 0.8 0"/>
<feBlend mode="normal" in2="BackgroundImageFix" result="effect1_dropShadow"/>
<feBlend mode="normal" in="SourceGraphic" in2="effect1_dropShadow" result="shape"/>
</filter>
</defs>
</svg>
